# xmcd
#
# Track frame offsets: 
#        180
#        1712
#        22722
#        39413
#        58003
#        72894
#        88233
#        104638
#        122265
#        138295
#        159341
#
# Disc length: 2327 seconds
#
# Revision: 0
# Processed by: cddbd v1.4PL0 Copyright (c) Steve Scherf et al.
# Submitted via: ExactAudioCopy v0.90b4
#
DISCID=7d09150b
DTITLE=Mitch Mills - Moonshine Cars
DYEAR=1997
DGENRE=Blues Rock
TTITLE0=Psyche
TTITLE1=Talkin'
TTITLE2=Hit Me
TTITLE3=Trouble
TTITLE4=Moonshine Cars
TTITLE5=Subterranean Homesick Blues
TTITLE6=Keys
TTITLE7=Hidden Identity Blues Super Hero
TTITLE8=In My Time
TTITLE9=Maybe Tomorrow
TTITLE10=Uncle John
EXTD=
EXTT0=
EXTT1=
EXTT2=
EXTT3=
EXTT4=
EXTT5=
EXTT6=
EXTT7=
EXTT8=
EXTT9=
EXTT10=
PLAYORDER=
